<svg width="94" height="24" viewBox="0 0 94 24" fill="none" xmlns="http://www.w3.org/2000/svg">
<g clip-path="url(#clip0_772_20)">
<g filter="url(#filter0_iii_772_20)">
<g clip-path="url(#clip1_772_20)">
<circle cx="12" cy="12" r="12" fill="url(#paint0_radial_772_20)"/>
<g filter="url(#filter1_d_772_20)">
<path d="M5 12C5 8.13401 8.13401 5 12 5V5C15.866 5 19 8.13401 19 12V12H5V12Z" fill="white"/>
</g>
<path d="M5 12H19V12C19 15.866 15.866 19 12 19V19C8.13401 19 5 15.866 5 12V12Z" fill="url(#paint1_radial_772_20)" fill-opacity="0.66"/>
<g filter="url(#filter2_i_772_20)">
<path d="M0 12C0 5.37258 5.37258 0 12 0V0C18.6274 0 24 5.37258 24 12V12H0V12Z" fill="white" fill-opacity="0.2"/>
</g>
</g>
</g>
</g>
<path d="M32.59 17.71C34.075 17.71 34.915 16.87 35.155 16.285L35.455 17.5H36.715V12.01H32.365V13.615H34.87C34.87 15.1 34.105 16.015 32.74 16.015C30.7 16.015 30.535 13.645 30.535 12.19C30.535 10.72 30.745 8.41 32.875 8.41C34.3 8.41 34.765 9.37 34.795 10.24H36.745C36.745 8.455 35.575 6.67 32.875 6.67C31.795 6.67 30.745 6.985 29.965 7.765C28.795 8.935 28.57 10.495 28.57 12.19C28.57 13.885 28.72 15.535 29.905 16.69C30.655 17.425 31.615 17.71 32.59 17.71ZM41.9518 15.97C41.3668 15.97 40.8568 15.79 40.4518 15.385C39.7168 14.65 39.7168 13.075 39.7168 12.19C39.7168 11.305 39.7168 9.73 40.4518 8.995C40.8568 8.59 41.3668 8.41 41.9518 8.41C42.5368 8.41 43.0468 8.59 43.4518 8.995C44.1868 9.73 44.1868 11.305 44.1868 12.19C44.1868 13.075 44.1868 14.65 43.4518 15.385C43.0468 15.79 42.5368 15.97 41.9518 15.97ZM41.9518 17.71C43.0318 17.71 44.0068 17.38 44.7868 16.6C45.9568 15.43 46.1518 13.885 46.1518 12.19C46.1518 10.495 45.9568 8.95 44.7868 7.78C44.0068 7 43.0318 6.67 41.9518 6.67C40.8718 6.67 39.8968 7 39.1168 7.78C37.9468 8.95 37.7518 10.495 37.7518 12.19C37.7518 13.885 37.9468 15.43 39.1168 16.6C39.8968 17.38 40.8718 17.71 41.9518 17.71ZM48.1935 17.5H55.2885V15.67H50.1285V6.865H48.1935V17.5ZM64.6803 12.16C64.6803 10.72 64.4853 9.55 63.8853 8.59C63.2853 7.615 62.0703 6.865 60.4053 6.865H56.9703V17.5H60.4053C62.0703 17.5 63.2703 16.795 63.8703 15.82C64.4703 14.86 64.6803 13.6 64.6803 12.16ZM62.7153 12.16C62.7153 13.33 62.6103 14.44 61.9953 15.115C61.6353 15.505 61.0653 15.76 60.2253 15.76H58.9053V8.605H60.2253C61.0203 8.605 61.5903 8.845 61.9503 9.205C62.5953 9.865 62.7153 10.96 62.7153 12.16ZM73.907 14.35C73.907 12.565 72.647 11.575 70.907 11.29L69.422 11.05C68.462 10.885 67.952 10.48 67.952 9.82C67.952 8.8 68.867 8.305 69.842 8.305C71.087 8.305 71.747 9.04 71.792 10H73.742C73.712 8.08 72.092 6.655 69.872 6.655C67.742 6.655 66.047 8.065 66.047 9.97C66.047 11.665 67.202 12.595 69.002 12.91L70.607 13.18C71.372 13.315 71.987 13.72 71.987 14.47C71.987 15.61 70.907 16.045 69.857 16.045C68.792 16.045 67.742 15.475 67.742 14.095H65.762C65.762 16.555 67.877 17.71 69.827 17.71C71.867 17.71 73.907 16.63 73.907 14.35ZM77.4938 11.62V6.865H75.5588V17.5H77.4938V14.35L78.7238 12.865L81.4388 17.5H83.7488L80.0138 11.32L83.7338 6.865H81.3038L77.4938 11.62ZM89.4355 12.97L92.9905 6.865H90.9505L88.5205 11.2L86.0605 6.865H83.9305L87.4855 12.97V17.5H89.4355V12.97Z" fill="#22262E"/>
<defs>
<filter id="filter0_iii_772_20" x="0" y="-2" width="24" height="28" filterUnits="userSpaceOnUse" color-interpolation-filters="sRGB">
<feFlood flood-opacity="0" result="BackgroundImageFix"/>
<feBlend mode="normal" in="SourceGraphic" in2="BackgroundImageFix" result="shape"/>
<feColorMatrix in="SourceAlpha" type="matrix" values="0 0 0 0 0 0 0 0 0 0 0 0 0 0 0 0 0 0 127 0" result="hardAlpha"/>
<feOffset dy="-1"/>
<feGaussianBlur stdDeviation="0.5"/>
<feComposite in2="hardAlpha" operator="arithmetic" k2="-1" k3="1"/>
<feColorMatrix type="matrix" values="0 0 0 0 1 0 0 0 0 0.843137 0 0 0 0 0.501961 0 0 0 0.25 0"/>
<feBlend mode="normal" in2="shape" result="effect1_innerShadow_772_20"/>
<feColorMatrix in="SourceAlpha" type="matrix" values="0 0 0 0 0 0 0 0 0 0 0 0 0 0 0 0 0 0 127 0" result="hardAlpha"/>
<feOffset dy="-2"/>
<feGaussianBlur stdDeviation="2"/>
<feComposite in2="hardAlpha" operator="arithmetic" k2="-1" k3="1"/>
<feColorMatrix type="matrix" values="0 0 0 0 0.958333 0 0 0 0 0 0 0 0 0 3.42727e-07 0 0 0 0.25 0"/>
<feBlend mode="normal" in2="effect1_innerShadow_772_20" result="effect2_innerShadow_772_20"/>
<feColorMatrix in="SourceAlpha" type="matrix" values="0 0 0 0 0 0 0 0 0 0 0 0 0 0 0 0 0 0 127 0" result="hardAlpha"/>
<feOffset dy="2"/>
<feGaussianBlur stdDeviation="3"/>
<feComposite in2="hardAlpha" operator="arithmetic" k2="-1" k3="1"/>
<feColorMatrix type="matrix" values="0 0 0 0 1 0 0 0 0 1 0 0 0 0 1 0 0 0 0.5 0"/>
<feBlend mode="normal" in2="effect2_innerShadow_772_20" result="effect3_innerShadow_772_20"/>
</filter>
<filter id="filter1_d_772_20" x="2" y="2" width="20" height="13" filterUnits="userSpaceOnUse" color-interpolation-filters="sRGB">
<feFlood flood-opacity="0" result="BackgroundImageFix"/>
<feColorMatrix in="SourceAlpha" type="matrix" values="0 0 0 0 0 0 0 0 0 0 0 0 0 0 0 0 0 0 127 0" result="hardAlpha"/>
<feOffset/>
<feGaussianBlur stdDeviation="1.5"/>
<feComposite in2="hardAlpha" operator="out"/>
<feColorMatrix type="matrix" values="0 0 0 0 1 0 0 0 0 1 0 0 0 0 1 0 0 0 1 0"/>
<feBlend mode="normal" in2="BackgroundImageFix" result="effect1_dropShadow_772_20"/>
<feBlend mode="normal" in="SourceGraphic" in2="effect1_dropShadow_772_20" result="shape"/>
</filter>
<filter id="filter2_i_772_20" x="0" y="0" width="24" height="16" filterUnits="userSpaceOnUse" color-interpolation-filters="sRGB">
<feFlood flood-opacity="0" result="BackgroundImageFix"/>
<feBlend mode="normal" in="SourceGraphic" in2="BackgroundImageFix" result="shape"/>
<feColorMatrix in="SourceAlpha" type="matrix" values="0 0 0 0 0 0 0 0 0 0 0 0 0 0 0 0 0 0 127 0" result="hardAlpha"/>
<feOffset dy="4"/>
<feGaussianBlur stdDeviation="2"/>
<feComposite in2="hardAlpha" operator="arithmetic" k2="-1" k3="1"/>
<feColorMatrix type="matrix" values="0 0 0 0 1 0 0 0 0 1 0 0 0 0 1 0 0 0 0.25 0"/>
<feBlend mode="normal" in2="shape" result="effect1_innerShadow_772_20"/>
</filter>
<radialGradient id="paint0_radial_772_20" cx="0" cy="0" r="1" gradientUnits="userSpaceOnUse" gradientTransform="translate(12 24) rotate(-90) scale(24 38.6375)">
<stop stop-color="#FE5117"/>
<stop offset="1" stop-color="#FFC61C"/>
</radialGradient>
<radialGradient id="paint1_radial_772_20" cx="0" cy="0" r="1" gradientUnits="userSpaceOnUse" gradientTransform="translate(12 12) rotate(90) scale(7 14)">
<stop stop-color="white"/>
<stop offset="1" stop-color="#D9D9D9" stop-opacity="0"/>
<stop offset="1" stop-color="white" stop-opacity="0"/>
</radialGradient>
<clipPath id="clip0_772_20">
<rect width="24" height="24" fill="white"/>
</clipPath>
<clipPath id="clip1_772_20">
<rect width="24" height="24" rx="12" fill="white"/>
</clipPath>
</defs>
</svg>
